<svg width="56" height="56" viewBox="0 0 56 56" fill="none" xmlns="http://www.w3.org/2000/svg">
<rect width="56" height="56" rx="12" fill="#22233F"/>
<path d="M18.2412 43V36.55C16.8162 35.25 15.7099 33.7312 14.9224 31.9937C14.1349 30.2563 13.7412 28.425 13.7412 26.5C13.7412 22.75 15.0537 19.5625 17.6787 16.9375C20.3037 14.3125 23.4912 13 27.2412 13C30.3662 13 33.1349 13.9187 35.5474 15.7562C37.9599 17.5938 39.5287 19.9875 40.2537 22.9375L42.2037 30.625C42.3287 31.1 42.2412 31.5312 41.9412 31.9188C41.6412 32.3063 41.2412 32.5 40.7412 32.5H37.7412V37C37.7412 37.825 37.4474 38.5312 36.8599 39.1187C36.2724 39.7062 35.5662 40 34.7412 40H31.7412V43H28.7412V37H34.7412V29.5H38.7912L37.3662 23.6875C36.7912 21.4125 35.5662 19.5625 33.6912 18.1375C31.8162 16.7125 29.6662 16 27.2412 16C24.3412 16 21.8662 17.0125 19.8162 19.0375C17.7662 21.0625 16.7412 23.525 16.7412 26.425C16.7412 27.925 17.0474 29.35 17.6599 30.7C18.2724 32.05 19.1412 33.25 20.2662 34.3L21.2412 35.2V43H18.2412ZM25.7412 32.5H28.7412L28.9662 30.625C29.1662 30.55 29.3474 30.4625 29.5099 30.3625C29.6724 30.2625 29.8162 30.15 29.9412 30.025L31.6662 30.775L33.1662 28.225L31.6662 27.1C31.7162 26.9 31.7412 26.7 31.7412 26.5C31.7412 26.3 31.7162 26.1 31.6662 25.9L33.1662 24.775L31.6662 22.225L29.9412 22.975C29.8162 22.85 29.6724 22.7375 29.5099 22.6375C29.3474 22.5375 29.1662 22.45 28.9662 22.375L28.7412 20.5H25.7412L25.5162 22.375C25.3162 22.45 25.1349 22.5375 24.9724 22.6375C24.8099 22.7375 24.6662 22.85 24.5412 22.975L22.8162 22.225L21.3162 24.775L22.8162 25.9C22.7662 26.1 22.7412 26.3 22.7412 26.5C22.7412 26.7 22.7662 26.9 22.8162 27.1L21.3162 28.225L22.8162 30.775L24.5412 30.025C24.6662 30.15 24.8099 30.2625 24.9724 30.3625C25.1349 30.4625 25.3162 30.55 25.5162 30.625L25.7412 32.5ZM27.2412 28.75C26.6162 28.75 26.0849 28.5312 25.6474 28.0938C25.2099 27.6562 24.9912 27.125 24.9912 26.5C24.9912 25.875 25.2099 25.3438 25.6474 24.9062C26.0849 24.4688 26.6162 24.25 27.2412 24.25C27.8662 24.25 28.3974 24.4688 28.8349 24.9062C29.2724 25.3438 29.4912 25.875 29.4912 26.5C29.4912 27.125 29.2724 27.6562 28.8349 28.0938C28.3974 28.5312 27.8662 28.75 27.2412 28.75Z" fill="#FF51FA"/>
</svg>
