<svg width="56" height="56" viewBox="0 0 56 56" fill="none" xmlns="http://www.w3.org/2000/svg">
<rect width="56" height="56" rx="12" fill="#22233F"/>
<path d="M16.825 38.5C15.55 38.5 14.5625 38.0563 13.8625 37.1688C13.1625 36.2812 12.9 35.2 13.075 33.925L14.65 22.675C14.875 21.175 15.5438 19.9375 16.6563 18.9625C17.7688 17.9875 19.075 17.5 20.575 17.5H35.425C36.925 17.5 38.2313 17.9875 39.3438 18.9625C40.4563 19.9375 41.125 21.175 41.35 22.675L42.925 33.925C43.1 35.2 42.8375 36.2812 42.1375 37.1688C41.4375 38.0563 40.45 38.5 39.175 38.5C38.65 38.5 38.1625 38.4062 37.7125 38.2188C37.2625 38.0312 36.85 37.75 36.475 37.375L33.1 34H22.9L19.525 37.375C19.15 37.75 18.7375 38.0312 18.2875 38.2188C17.8375 38.4062 17.35 38.5 16.825 38.5ZM17.425 35.275L21.7 31H34.3L38.575 35.275C38.625 35.325 38.825 35.4 39.175 35.5C39.45 35.5 39.6688 35.4188 39.8313 35.2563C39.9938 35.0938 40.05 34.875 40 34.6L38.35 23.05C38.25 22.325 37.925 21.7188 37.375 21.2313C36.825 20.7438 36.175 20.5 35.425 20.5H20.575C19.825 20.5 19.175 20.7438 18.625 21.2313C18.075 21.7188 17.75 22.325 17.65 23.05L16 34.6C15.95 34.875 16.0063 35.0938 16.1688 35.2563C16.3313 35.4188 16.55 35.5 16.825 35.5C16.875 35.5 17.075 35.425 17.425 35.275ZM35.5 29.5C35.925 29.5 36.2813 29.3563 36.5688 29.0688C36.8563 28.7812 37 28.425 37 28C37 27.575 36.8563 27.2188 36.5688 26.9312C36.2813 26.6437 35.925 26.5 35.5 26.5C35.075 26.5 34.7188 26.6437 34.4313 26.9312C34.1438 27.2188 34 27.575 34 28C34 28.425 34.1438 28.7812 34.4313 29.0688C34.7188 29.3563 35.075 29.5 35.5 29.5ZM32.5 25C32.925 25 33.2813 24.8562 33.5688 24.5687C33.8563 24.2812 34 23.925 34 23.5C34 23.075 33.8563 22.7188 33.5688 22.4313C33.2813 22.1438 32.925 22 32.5 22C32.075 22 31.7188 22.1438 31.4313 22.4313C31.1438 22.7188 31 23.075 31 23.5C31 23.925 31.1438 24.2812 31.4313 24.5687C31.7188 24.8562 32.075 25 32.5 25ZM21.625 29.5H23.875V26.875H26.5V24.625H23.875V22H21.625V24.625H19V26.875H21.625V29.5Z" fill="#C1FFFE"/>
</svg>
