<svg width="96" height="96" viewBox="0 0 96 96" fill="none" xmlns="http://www.w3.org/2000/svg">
<g filter="url(#filter0_i_49_296)">
<rect width="96" height="96" rx="16" fill="#22233F"/>
<rect x="0.5" y="0.5" width="95" height="95" rx="15.5" stroke="#F3FFCA" stroke-opacity="0.2"/>
<path d="M30 46V30H46V46H30V46M30 66V50H46V66H30V66M50 46V30H66V46H50V46M50 66V50H66V66H50V66M34 42H42V34H34V42V42M54 42H62V34H54V42V42M54 62H62V54H54V62V62M34 62H42V54H34V62V62M54 42V42V42V42V42V42M54 54V54V54V54V54V54M42 54V54V54V54V54V54M42 42V42V42V42V42V42" fill="#F3FFCA"/>
</g>
<defs>
<filter id="filter0_i_49_296" x="0" y="0" width="96" height="96" filterUnits="userSpaceOnUse" color-interpolation-filters="sRGB">
<feFlood flood-opacity="0" result="BackgroundImageFix"/>
<feBlend mode="normal" in="SourceGraphic" in2="BackgroundImageFix" result="shape"/>
<feColorMatrix in="SourceAlpha" type="matrix" values="0 0 0 0 0 0 0 0 0 0 0 0 0 0 0 0 0 0 127 0" result="hardAlpha"/>
<feMorphology radius="1" operator="erode" in="SourceAlpha" result="effect1_innerShadow_49_296"/>
<feOffset/>
<feGaussianBlur stdDeviation="10"/>
<feComposite in2="hardAlpha" operator="arithmetic" k2="-1" k3="1"/>
<feColorMatrix type="matrix" values="0 0 0 0 0.792157 0 0 0 0 0.992157 0 0 0 0 0 0 0 0 0.1 0"/>
<feBlend mode="normal" in2="shape" result="effect1_innerShadow_49_296"/>
</filter>
</defs>
</svg>
