<svg width="56" height="56" viewBox="0 0 56 56" fill="none" xmlns="http://www.w3.org/2000/svg">
<rect width="56" height="56" rx="12" fill="#9F0519" fill-opacity="0.2"/>
<path d="M25.75 33.625H30.25L28 29.125L25.75 33.625ZM22.75 29.5C23.575 29.5 24.2812 29.2062 24.8687 28.6187C25.4562 28.0312 25.75 27.325 25.75 26.5C25.75 25.675 25.4562 24.9688 24.8687 24.3813C24.2812 23.7938 23.575 23.5 22.75 23.5C21.925 23.5 21.2188 23.7938 20.6312 24.3813C20.0437 24.9688 19.75 25.675 19.75 26.5C19.75 27.325 20.0437 28.0312 20.6312 28.6187C21.2188 29.2062 21.925 29.5 22.75 29.5ZM33.25 29.5C34.075 29.5 34.7812 29.2062 35.3687 28.6187C35.9562 28.0312 36.25 27.325 36.25 26.5C36.25 25.675 35.9562 24.9688 35.3687 24.3813C34.7812 23.7938 34.075 23.5 33.25 23.5C32.425 23.5 31.7188 23.7938 31.1313 24.3813C30.5438 24.9688 30.25 25.675 30.25 26.5C30.25 27.325 30.5438 28.0312 31.1313 28.6187C31.7188 29.2062 32.425 29.5 33.25 29.5ZM19 43V36.625C18.025 36.2 17.1688 35.6313 16.4313 34.9188C15.6938 34.2063 15.0687 33.4 14.5562 32.5C14.0438 31.6 13.6562 30.6375 13.3938 29.6125C13.1313 28.5875 13 27.55 13 26.5C13 22.55 14.4 19.3125 17.2 16.7875C20 14.2625 23.6 13 28 13C32.4 13 36 14.2625 38.8 16.7875C41.6 19.3125 43 22.55 43 26.5C43 27.55 42.8688 28.5875 42.6063 29.6125C42.3438 30.6375 41.9563 31.6 41.4438 32.5C40.9312 33.4 40.3062 34.2063 39.5688 34.9188C38.8313 35.6313 37.975 36.2 37 36.625V43H32.5V40H29.5V43H26.5V40H23.5V43H19Z" fill="#FF716C"/>
</svg>
