<svg width="56" height="56" viewBox="0 0 56 56" fill="none" xmlns="http://www.w3.org/2000/svg">
<rect width="56" height="56" rx="12" fill="#22233F"/>
<path d="M18.3649 24.9404L21.2899 26.1779C21.6399 25.4779 22.0024 24.8029 22.3774 24.1529C22.7524 23.5029 23.1649 22.8529 23.6149 22.2029L21.5149 21.7904L18.3649 24.9404ZM23.6899 28.0529L27.9649 32.2904C29.0149 31.8904 30.1399 31.2779 31.3399 30.4529C32.5399 29.6279 33.6649 28.6904 34.7149 27.6404C36.4649 25.8904 37.8337 23.9467 38.8212 21.8092C39.8087 19.6717 40.2399 17.7029 40.1149 15.9029C38.3149 15.7779 36.3399 16.2092 34.1899 17.1967C32.0399 18.1842 30.0899 19.5529 28.3399 21.3029C27.2899 22.3529 26.3524 23.4779 25.5274 24.6779C24.7024 25.8779 24.0899 27.0029 23.6899 28.0529ZM30.3649 25.6154C29.7899 25.0404 29.5024 24.3342 29.5024 23.4967C29.5024 22.6592 29.7899 21.9529 30.3649 21.3779C30.9399 20.8029 31.6524 20.5154 32.5024 20.5154C33.3524 20.5154 34.0649 20.8029 34.6399 21.3779C35.2149 21.9529 35.5024 22.6592 35.5024 23.4967C35.5024 24.3342 35.2149 25.0404 34.6399 25.6154C34.0649 26.1904 33.3524 26.4779 32.5024 26.4779C31.6524 26.4779 30.9399 26.1904 30.3649 25.6154ZM31.0774 37.6529L34.2274 34.5029L33.8149 32.4029C33.1649 32.8529 32.5149 33.2592 31.8649 33.6217C31.2149 33.9842 30.5399 34.3404 29.8399 34.6904L31.0774 37.6529ZM42.8149 13.1654C43.2899 16.1904 42.9962 19.1342 41.9337 21.9967C40.8712 24.8592 39.0399 27.5904 36.4399 30.1904L37.1899 33.9029C37.2899 34.4029 37.2649 34.8904 37.1149 35.3654C36.9649 35.8404 36.7149 36.2529 36.3649 36.6029L30.0649 42.9029L26.9149 35.5154L20.5024 29.1029L13.1149 25.9529L19.3774 19.6529C19.7274 19.3029 20.1462 19.0529 20.6337 18.9029C21.1212 18.7529 21.6149 18.7279 22.1149 18.8279L25.8274 19.5779C28.4274 16.9779 31.1524 15.1404 34.0024 14.0654C36.8524 12.9904 39.7899 12.6904 42.8149 13.1654ZM15.7774 33.8654C16.6524 32.9904 17.7212 32.5467 18.9837 32.5342C20.2462 32.5217 21.3149 32.9529 22.1899 33.8279C23.0649 34.7029 23.4962 35.7717 23.4837 37.0342C23.4712 38.2967 23.0274 39.3654 22.1524 40.2404C21.5274 40.8654 20.4837 41.4029 19.0212 41.8529C17.5587 42.3029 15.5399 42.7029 12.9649 43.0529C13.3149 40.4779 13.7149 38.4592 14.1649 36.9967C14.6149 35.5342 15.1524 34.4904 15.7774 33.8654ZM17.9149 35.9654C17.6649 36.2154 17.4149 36.6717 17.1649 37.3342C16.9149 37.9967 16.7399 38.6654 16.6399 39.3404C17.3149 39.2404 17.9837 39.0717 18.6462 38.8342C19.3087 38.5967 19.7649 38.3529 20.0149 38.1029C20.3149 37.8029 20.4774 37.4404 20.5024 37.0154C20.5274 36.5904 20.3899 36.2279 20.0899 35.9279C19.7899 35.6279 19.4274 35.4842 19.0024 35.4967C18.5774 35.5092 18.2149 35.6654 17.9149 35.9654Z" fill="#C1FFFE"/>
</svg>
