<svg width="15" height="16" viewBox="0 0 15 16" fill="none" xmlns="http://www.w3.org/2000/svg">
<path d="M12.2625 9.7125L11.175 8.625C11.35 8.3375 11.4813 8.0375 11.5688 7.725C11.6563 7.4125 11.7 7.0875 11.7 6.75H13.2C13.2 7.3 13.1188 7.82188 12.9563 8.31563C12.7938 8.80938 12.5625 9.275 12.2625 9.7125V9.7125M7.95 5.3625V5.3625V5.3625V5.3625V5.3625V5.3625V5.3625V5.3625V5.3625M10.05 7.4625L8.7 6.1125V2.25C8.7 2.0375 8.62812 1.85938 8.48438 1.71563C8.34063 1.57188 8.1625 1.5 7.95 1.5C7.7375 1.5 7.55938 1.57188 7.41563 1.71563C7.27188 1.85938 7.2 2.0375 7.2 2.25V4.6125L5.7 3.1125V2.25C5.7 1.625 5.91875 1.09375 6.35625 0.65625C6.79375 0.21875 7.325 0 7.95 0C8.575 0 9.10625 0.21875 9.54375 0.65625C9.98125 1.09375 10.2 1.625 10.2 2.25V6.75C10.2 6.8875 10.1844 7.0125 10.1531 7.125C10.1219 7.2375 10.0875 7.35 10.05 7.4625V7.4625M7.2 14.25V11.9438C5.9 11.7688 4.825 11.1875 3.975 10.2C3.125 9.2125 2.7 8.0625 2.7 6.75H4.2C4.2 7.7875 4.55937 8.67187 5.27812 9.40312C5.99687 10.1344 6.8875 10.5 7.95 10.5C8.375 10.5 8.77813 10.4344 9.15938 10.3031C9.54063 10.1719 9.8875 9.9875 10.2 9.75L11.2688 10.8188C10.9063 11.1063 10.5094 11.35 10.0781 11.55C9.64687 11.75 9.1875 11.8813 8.7 11.9438V14.25H7.2V14.25M13.8 15.45L0 1.65L1.05 0.6L14.85 14.4L13.8 15.45V15.45" fill="#A9A9C3"/>
</svg>
