<svg width="13" height="13" viewBox="0 0 13 13" fill="none" xmlns="http://www.w3.org/2000/svg">
<path d="M1.16667 12.8333V10.3833C0.826389 10.2667 0.546875 10.0601 0.328125 9.76354C0.109375 9.46701 0 9.12917 0 8.75V2.91667H1.16667V0.583333C1.16667 0.418056 1.22257 0.279514 1.33438 0.167708C1.44618 0.0559028 1.58472 0 1.75 0C1.91528 0 2.05382 0.0559028 2.16563 0.167708C2.27743 0.279514 2.33333 0.418056 2.33333 0.583333V2.91667H3.5V8.75C3.5 9.12917 3.39062 9.46701 3.17188 9.76354C2.95312 10.0601 2.67361 10.2667 2.33333 10.3833V12.8333H1.16667V12.8333M5.83333 12.8333V10.3833C5.49306 10.2667 5.21354 10.0601 4.99479 9.76354C4.77604 9.46701 4.66667 9.12917 4.66667 8.75V2.91667H5.83333V0.583333C5.83333 0.418056 5.88924 0.279514 6.00104 0.167708C6.11285 0.0559028 6.25139 0 6.41667 0C6.58194 0 6.72049 0.0559028 6.83229 0.167708C6.9441 0.279514 7 0.418056 7 0.583333V2.91667H8.16667V8.75C8.16667 9.12917 8.05729 9.46701 7.83854 9.76354C7.61979 10.0601 7.34028 10.2667 7 10.3833V12.8333H5.83333V12.8333M10.5 12.8333V10.3833C10.1597 10.2667 9.88021 10.0601 9.66146 9.76354C9.44271 9.46701 9.33333 9.12917 9.33333 8.75V2.91667H10.5V0.583333C10.5 0.418056 10.5559 0.279514 10.6677 0.167708C10.7795 0.0559028 10.9181 0 11.0833 0C11.2486 0 11.3872 0.0559028 11.499 0.167708C11.6108 0.279514 11.6667 0.418056 11.6667 0.583333V2.91667H12.8333V8.75C12.8333 9.12917 12.724 9.46701 12.5052 9.76354C12.2865 10.0601 12.0069 10.2667 11.6667 10.3833V12.8333H10.5V12.8333M1.16667 4.08333V6.41667H2.33333V4.08333H1.16667V4.08333M5.83333 4.08333V6.41667H7V4.08333H5.83333V4.08333M10.5 4.08333V6.41667H11.6667V4.08333H10.5V4.08333M1.75 9.33333C1.91528 9.33333 2.05382 9.27743 2.16563 9.16562C2.27743 9.05382 2.33333 8.91528 2.33333 8.75V7.58333H1.16667V8.75C1.16667 8.91528 1.22257 9.05382 1.33438 9.16562C1.44618 9.27743 1.58472 9.33333 1.75 9.33333V9.33333M6.41667 9.33333C6.58194 9.33333 6.72049 9.27743 6.83229 9.16562C6.9441 9.05382 7 8.91528 7 8.75V7.58333H5.83333V8.75C5.83333 8.91528 5.88924 9.05382 6.00104 9.16562C6.11285 9.27743 6.25139 9.33333 6.41667 9.33333V9.33333M11.0833 9.33333C11.2486 9.33333 11.3872 9.27743 11.499 9.16562C11.6108 9.05382 11.6667 8.91528 11.6667 8.75V7.58333H10.5V8.75C10.5 8.91528 10.5559 9.05382 10.6677 9.16562C10.7795 9.27743 10.9181 9.33333 11.0833 9.33333V9.33333M1.75 7V7V7V7V7V7M6.41667 7V7V7V7V7V7M11.0833 7V7V7V7V7V7" fill="#C1FFFE"/>
</svg>
