<svg width="96" height="96" viewBox="0 0 96 96" fill="none" xmlns="http://www.w3.org/2000/svg">
<g filter="url(#filter0_i_49_264)">
<rect width="96" height="96" rx="16" fill="#22233F"/>
<rect x="0.5" y="0.5" width="95" height="95" rx="15.5" stroke="#C1FFFE" stroke-opacity="0.2"/>
<path d="M24 60V56.85C24 55.4167 24.7333 54.25 26.2 53.35C27.6667 52.45 29.6 52 32 52C32.4333 52 32.85 52.0083 33.25 52.025C33.65 52.0417 34.0333 52.0833 34.4 52.15C33.9333 52.85 33.5833 53.5833 33.35 54.35C33.1167 55.1167 33 55.9167 33 56.75V60H24V60M36 60V56.75C36 55.6833 36.2917 54.7083 36.875 53.825C37.4583 52.9417 38.2833 52.1667 39.35 51.5C40.4167 50.8333 41.6917 50.3333 43.175 50C44.6583 49.6667 46.2667 49.5 48 49.5C49.7667 49.5 51.3917 49.6667 52.875 50C54.3583 50.3333 55.6333 50.8333 56.7 51.5C57.7667 52.1667 58.5833 52.9417 59.15 53.825C59.7167 54.7083 60 55.6833 60 56.75V60H36V60M63 60V56.75C63 55.8833 62.8917 55.0667 62.675 54.3C62.4583 53.5333 62.1333 52.8167 61.7 52.15C62.0667 52.0833 62.4417 52.0417 62.825 52.025C63.2083 52.0083 63.6 52 64 52C66.4 52 68.3333 52.4417 69.8 53.325C71.2667 54.2083 72 55.3833 72 56.85V60H63V60M40.25 56H55.8V56C55.4667 55.3333 54.5417 54.75 53.025 54.25C51.5083 53.75 49.8333 53.5 48 53.5C46.1667 53.5 44.4917 53.75 42.975 54.25C41.4583 54.75 40.55 55.3333 40.25 56V56V56M32 50C30.9 50 29.9583 49.6083 29.175 48.825C28.3917 48.0417 28 47.1 28 46C28 44.8667 28.3917 43.9167 29.175 43.15C29.9583 42.3833 30.9 42 32 42C33.1333 42 34.0833 42.3833 34.85 43.15C35.6167 43.9167 36 44.8667 36 46C36 47.1 35.6167 48.0417 34.85 48.825C34.0833 49.6083 33.1333 50 32 50V50M64 50C62.9 50 61.9583 49.6083 61.175 48.825C60.3917 48.0417 60 47.1 60 46C60 44.8667 60.3917 43.9167 61.175 43.15C61.9583 42.3833 62.9 42 64 42C65.1333 42 66.0833 42.3833 66.85 43.15C67.6167 43.9167 68 44.8667 68 46C68 47.1 67.6167 48.0417 66.85 48.825C66.0833 49.6083 65.1333 50 64 50V50M48 48C46.3333 48 44.9167 47.4167 43.75 46.25C42.5833 45.0833 42 43.6667 42 42C42 40.3 42.5833 38.875 43.75 37.725C44.9167 36.575 46.3333 36 48 36C49.7 36 51.125 36.575 52.275 37.725C53.425 38.875 54 40.3 54 42C54 43.6667 53.425 45.0833 52.275 46.25C51.125 47.4167 49.7 48 48 48V48M48 44C48.5667 44 49.0417 43.8083 49.425 43.425C49.8083 43.0417 50 42.5667 50 42C50 41.4333 49.8083 40.9583 49.425 40.575C49.0417 40.1917 48.5667 40 48 40C47.4333 40 46.9583 40.1917 46.575 40.575C46.1917 40.9583 46 41.4333 46 42C46 42.5667 46.1917 43.0417 46.575 43.425C46.9583 43.8083 47.4333 44 48 44V44M48.05 56V56V56V56V56V56V56V56V56M48 42V42V42V42V42V42V42V42V42V42" fill="#C1FFFE"/>
</g>
<defs>
<filter id="filter0_i_49_264" x="0" y="0" width="96" height="96" filterUnits="userSpaceOnUse" color-interpolation-filters="sRGB">
<feFlood flood-opacity="0" result="BackgroundImageFix"/>
<feBlend mode="normal" in="SourceGraphic" in2="BackgroundImageFix" result="shape"/>
<feColorMatrix in="SourceAlpha" type="matrix" values="0 0 0 0 0 0 0 0 0 0 0 0 0 0 0 0 0 0 127 0" result="hardAlpha"/>
<feMorphology radius="1" operator="erode" in="SourceAlpha" result="effect1_innerShadow_49_264"/>
<feOffset/>
<feGaussianBlur stdDeviation="10"/>
<feComposite in2="hardAlpha" operator="arithmetic" k2="-1" k3="1"/>
<feColorMatrix type="matrix" values="0 0 0 0 0.756863 0 0 0 0 1 0 0 0 0 0.996078 0 0 0 0.1 0"/>
<feBlend mode="normal" in2="shape" result="effect1_innerShadow_49_264"/>
</filter>
</defs>
</svg>
