<svg width="56" height="56" viewBox="0 0 56 56" fill="none" xmlns="http://www.w3.org/2000/svg">
<rect width="56" height="56" rx="12" fill="#22233F"/>
<path d="M16 16L19 22H23.5L20.5 16H23.5L26.5 22H31L28 16H31L34 22H38.5L35.5 16H40C40.825 16 41.5312 16.2938 42.1187 16.8813C42.7062 17.4688 43 18.175 43 19V37C43 37.825 42.7062 38.5312 42.1187 39.1187C41.5312 39.7062 40.825 40 40 40H16C15.175 40 14.4688 39.7062 13.8813 39.1187C13.2938 38.5312 13 37.825 13 37V19C13 18.175 13.2938 17.4688 13.8813 16.8813C14.4688 16.2938 15.175 16 16 16ZM16 25V37H40V25H16ZM16 25V37V25Z" fill="#C1FFFE"/>
</svg>
