<svg width="48" height="32" viewBox="0 0 48 32" fill="none" xmlns="http://www.w3.org/2000/svg">
<rect width="32" height="32" rx="16" fill="#C1FFFE" fill-opacity="0.2"/>
<rect x="16" width="32" height="32" rx="16" fill="#00FFFF"/>
<path d="M10.1042 21.8959C9.35425 21.132 8.7605 20.2466 8.323 19.2397C7.8855 18.2327 7.66675 17.1529 7.66675 16.0001C7.66675 14.8334 7.8855 13.7466 8.323 12.7397C8.7605 11.7327 9.35425 10.8542 10.1042 10.1042L11.2917 11.2917C10.6806 11.9029 10.2015 12.6112 9.85425 13.4167C9.50703 14.2223 9.33341 15.0834 9.33341 16.0001C9.33341 16.9306 9.50703 17.7987 9.85425 18.6042C10.2015 19.4098 10.6806 20.1112 11.2917 20.7084L10.1042 21.8959V21.8959M12.4584 19.5417C12.014 19.0834 11.6598 18.5522 11.3959 17.948C11.132 17.3438 11.0001 16.6945 11.0001 16.0001C11.0001 15.2917 11.132 14.6355 11.3959 14.0313C11.6598 13.4272 12.014 12.9029 12.4584 12.4584L13.6459 13.6459C13.3404 13.9515 13.1008 14.3056 12.9272 14.7084C12.7536 15.1112 12.6667 15.5417 12.6667 16.0001C12.6667 16.4584 12.7536 16.889 12.9272 17.2917C13.1008 17.6945 13.3404 18.0487 13.6459 18.3542L12.4584 19.5417V19.5417M16.0001 17.6667C15.5417 17.6667 15.1494 17.5036 14.823 17.1772C14.4966 16.8508 14.3334 16.4584 14.3334 16.0001C14.3334 15.5417 14.4966 15.1494 14.823 14.823C15.1494 14.4966 15.5417 14.3334 16.0001 14.3334C16.4584 14.3334 16.8508 14.4966 17.1772 14.823C17.5036 15.1494 17.6667 15.5417 17.6667 16.0001C17.6667 16.4584 17.5036 16.8508 17.1772 17.1772C16.8508 17.5036 16.4584 17.6667 16.0001 17.6667V17.6667M19.5417 19.5417L18.3542 18.3542C18.6598 18.0487 18.8994 17.6945 19.073 17.2917C19.2466 16.889 19.3334 16.4584 19.3334 16.0001C19.3334 15.5417 19.2466 15.1112 19.073 14.7084C18.8994 14.3056 18.6598 13.9515 18.3542 13.6459L19.5417 12.4584C19.9862 12.9029 20.3404 13.4272 20.6042 14.0313C20.8681 14.6355 21.0001 15.2917 21.0001 16.0001C21.0001 16.6945 20.8681 17.3438 20.6042 17.948C20.3404 18.5522 19.9862 19.0834 19.5417 19.5417V19.5417M21.8959 21.8959L20.7084 20.7084C21.3195 20.0973 21.7987 19.389 22.1459 18.5834C22.4931 17.7779 22.6667 16.9167 22.6667 16.0001C22.6667 15.0695 22.4931 14.2015 22.1459 13.3959C21.7987 12.5904 21.3195 11.889 20.7084 11.2917L21.8959 10.1042C22.6459 10.8542 23.2397 11.7327 23.6772 12.7397C24.1147 13.7466 24.3334 14.8334 24.3334 16.0001C24.3334 17.1529 24.1147 18.2327 23.6772 19.2397C23.2397 20.2466 22.6459 21.132 21.8959 21.8959V21.8959" fill="#C1FFFE"/>
</svg>
