<svg width="96" height="96" viewBox="0 0 96 96" fill="none" xmlns="http://www.w3.org/2000/svg">
<g filter="url(#filter0_i_49_312)">
<rect width="96" height="96" rx="16" fill="#22233F"/>
<rect x="0.5" y="0.5" width="95" height="95" rx="15.5" stroke="#C1FFFE" stroke-opacity="0.2"/>
<path d="M34.9883 68V59.4C33.0883 57.6667 31.6133 55.6417 30.5633 53.325C29.5133 51.0083 28.9883 48.5667 28.9883 46C28.9883 41 30.7383 36.75 34.2383 33.25C37.7383 29.75 41.9883 28 46.9883 28C51.1549 28 54.8466 29.225 58.0633 31.675C61.2799 34.125 63.3716 37.3167 64.3383 41.25L66.9383 51.5C67.1049 52.1333 66.9883 52.7083 66.5883 53.225C66.1883 53.7417 65.6549 54 64.9883 54H60.9883V60C60.9883 61.1 60.5966 62.0417 59.8133 62.825C59.0299 63.6083 58.0883 64 56.9883 64H52.9883V68H48.9883V60H56.9883V60V60V50H62.3883L60.4883 42.25C59.7216 39.2167 58.0883 36.75 55.5883 34.85C53.0883 32.95 50.2216 32 46.9883 32C43.1216 32 39.8216 33.35 37.0883 36.05C34.3549 38.75 32.9883 42.0333 32.9883 45.9C32.9883 47.9 33.3966 49.8 34.2133 51.6C35.0299 53.4 36.1883 55 37.6883 56.4L38.9883 57.6V68H34.9883V68M47.6883 50V50V50V50V50V50V50V50V50V50V50V50V50V50V50V50V50V50M46.9883 56C47.5549 56 48.0299 55.8083 48.4133 55.425C48.7966 55.0417 48.9883 54.5667 48.9883 54C48.9883 53.4333 48.7966 52.9583 48.4133 52.575C48.0299 52.1917 47.5549 52 46.9883 52C46.4216 52 45.9466 52.1917 45.5633 52.575C45.1799 52.9583 44.9883 53.4333 44.9883 54C44.9883 54.5667 45.1799 55.0417 45.5633 55.425C45.9466 55.8083 46.4216 56 46.9883 56V56M45.4883 49.6H48.5383C48.5383 48.7667 48.6466 48.0917 48.8633 47.575C49.0799 47.0583 49.5216 46.4333 50.1883 45.7C50.7883 45.0333 51.3716 44.3583 51.9383 43.675C52.5049 42.9917 52.7883 42.1 52.7883 41C52.7883 39.6 52.2466 38.4167 51.1633 37.45C50.0799 36.4833 48.7383 36 47.1383 36C45.8049 36 44.5966 36.3833 43.5133 37.15C42.4299 37.9167 41.6716 38.9167 41.2383 40.15L43.9883 41.3C44.2216 40.5667 44.6299 39.975 45.2133 39.525C45.7966 39.075 46.4383 38.85 47.1383 38.85C47.8716 38.85 48.4799 39.05 48.9633 39.45C49.4466 39.85 49.6883 40.3667 49.6883 41C49.6883 41.7 49.4799 42.325 49.0633 42.875C48.6466 43.425 48.1549 43.9833 47.5883 44.55C46.9216 45.25 46.4049 45.95 46.0383 46.65C45.6716 47.35 45.4883 48.3333 45.4883 49.6V49.6" fill="#C1FFFE"/>
</g>
<defs>
<filter id="filter0_i_49_312" x="0" y="0" width="96" height="96" filterUnits="userSpaceOnUse" color-interpolation-filters="sRGB">
<feFlood flood-opacity="0" result="BackgroundImageFix"/>
<feBlend mode="normal" in="SourceGraphic" in2="BackgroundImageFix" result="shape"/>
<feColorMatrix in="SourceAlpha" type="matrix" values="0 0 0 0 0 0 0 0 0 0 0 0 0 0 0 0 0 0 127 0" result="hardAlpha"/>
<feMorphology radius="1" operator="erode" in="SourceAlpha" result="effect1_innerShadow_49_312"/>
<feOffset/>
<feGaussianBlur stdDeviation="10"/>
<feComposite in2="hardAlpha" operator="arithmetic" k2="-1" k3="1"/>
<feColorMatrix type="matrix" values="0 0 0 0 0.756863 0 0 0 0 1 0 0 0 0 0.996078 0 0 0 0.1 0"/>
<feBlend mode="normal" in2="shape" result="effect1_innerShadow_49_312"/>
</filter>
</defs>
</svg>
