<svg width="56" height="56" viewBox="0 0 56 56" fill="none" xmlns="http://www.w3.org/2000/svg">
<rect width="56" height="56" rx="12" fill="#22233F"/>
<path d="M17.5 41.5C16.225 41.5 15.3188 40.9313 14.7813 39.7938C14.2438 38.6562 14.375 37.6 15.175 36.625L23.5 26.5V17.5H22C21.575 17.5 21.2188 17.3562 20.9313 17.0687C20.6438 16.7812 20.5 16.425 20.5 16C20.5 15.575 20.6438 15.2188 20.9313 14.9313C21.2188 14.6438 21.575 14.5 22 14.5H34C34.425 14.5 34.7813 14.6438 35.0688 14.9313C35.3563 15.2188 35.5 15.575 35.5 16C35.5 16.425 35.3563 16.7812 35.0688 17.0687C34.7813 17.3562 34.425 17.5 34 17.5H32.5V26.5L40.825 36.625C41.625 37.6 41.7563 38.6562 41.2188 39.7938C40.6813 40.9313 39.775 41.5 38.5 41.5H17.5ZM17.5 38.5H38.5L29.5 27.55V17.5H26.5V27.55L17.5 38.5Z" fill="#FF51FA"/>
</svg>
