<svg width="56" height="56" viewBox="0 0 56 56" fill="none" xmlns="http://www.w3.org/2000/svg">
<rect width="56" height="56" rx="12" fill="#22233F"/>
<path d="M23.5 19H26.5V16H23.5V19ZM29.5 19V16H32.5V19H29.5ZM23.5 31V28H26.5V31H23.5ZM35.5 25V22H38.5V25H35.5ZM35.5 31V28H38.5V31H35.5ZM29.5 31V28H32.5V31H29.5ZM35.5 19V16H38.5V19H35.5ZM26.5 22V19H29.5V22H26.5ZM17.5 40V16H20.5V19H23.5V22H20.5V25H23.5V28H20.5V40H17.5ZM32.5 28V25H35.5V28H32.5ZM26.5 28V25H29.5V28H26.5ZM23.5 25V22H26.5V25H23.5ZM29.5 25V22H32.5V25H29.5ZM32.5 22V19H35.5V22H32.5Z" fill="#FF51FA"/>
</svg>
