<svg width="17" height="17" viewBox="0 0 17 17" fill="none" xmlns="http://www.w3.org/2000/svg">
<path d="M15.375 7.5L14.9062 6.46875L13.875 6L14.9062 5.53125L15.375 4.5L15.8438 5.53125L16.875 6L15.8438 6.46875L15.375 7.5ZM13.125 4.5L12.4125 2.9625L10.875 2.25L12.4125 1.5375L13.125 0L13.8375 1.5375L15.375 2.25L13.8375 2.9625L13.125 4.5ZM5.625 16.5C5.2125 16.5 4.85938 16.3531 4.56563 16.0594C4.27188 15.7656 4.125 15.4125 4.125 15H7.125C7.125 15.4125 6.97812 15.7656 6.68437 16.0594C6.39062 16.3531 6.0375 16.5 5.625 16.5ZM2.625 14.25V12.75H8.625V14.25H2.625ZM2.8125 12C1.95 11.4875 1.26562 10.8 0.759375 9.9375C0.253125 9.075 0 8.1375 0 7.125C0 5.5625 0.546875 4.23438 1.64062 3.14062C2.73438 2.04688 4.0625 1.5 5.625 1.5C7.1875 1.5 8.51562 2.04688 9.60938 3.14062C10.7031 4.23438 11.25 5.5625 11.25 7.125C11.25 8.1375 10.9969 9.075 10.4906 9.9375C9.98438 10.8 9.3 11.4875 8.4375 12H2.8125ZM3.2625 10.5H7.9875C8.55 10.1 8.98438 9.60625 9.29062 9.01875C9.59687 8.43125 9.75 7.8 9.75 7.125C9.75 5.975 9.35 5 8.55 4.2C7.75 3.4 6.775 3 5.625 3C4.475 3 3.5 3.4 2.7 4.2C1.9 5 1.5 5.975 1.5 7.125C1.5 7.8 1.65313 8.43125 1.95938 9.01875C2.26562 9.60625 2.7 10.1 3.2625 10.5Z" fill="#FF51FA"/>
</svg>
